<?xml version="1.0" encoding="UTF-8"?>
<svg xmlns="http://www.w3.org/2000/svg" xmlns:xlink="http://www.w3.org/1999/xlink" width="20px" height="20px" viewBox="0 0 20 20" version="1.1">
<g id="surface1">
<path style=" stroke:none;fill-rule:nonzero;fill:rgb(18.039216%,22.745098%,34.901961%);fill-opacity:1;" d="M 15.5625 16.339844 L 10.800781 11.574219 C 8.683594 13.082031 5.765625 12.714844 4.085938 10.726562 C 2.40625 8.742188 2.53125 5.804688 4.371094 3.964844 C 6.207031 2.125 9.148438 2.003906 11.132812 3.679688 C 13.117188 5.359375 13.488281 8.277344 11.980469 10.398438 L 16.742188 15.160156 L 15.566406 16.339844 Z M 7.902344 4.167969 C 6.324219 4.167969 4.960938 5.277344 4.640625 6.824219 C 4.320312 8.371094 5.128906 9.929688 6.578125 10.558594 C 8.027344 11.1875 9.71875 10.710938 10.628906 9.417969 C 11.539062 8.125 11.414062 6.371094 10.335938 5.21875 L 10.839844 5.71875 L 10.269531 5.152344 L 10.261719 5.144531 C 9.636719 4.515625 8.789062 4.164062 7.902344 4.167969 Z M 7.902344 4.167969 "/>
</g>
</svg>
